<svg height="512pt" viewBox="-71 0 512 512" width="512pt" xmlns="http://www.w3.org/2000/svg"><path d="m178.953125 504.5c-13.804687 0-25-11.191406-25-25v-221.726562h50v221.726562c0 13.808594-11.191406 25-25 25zm0 0" fill="#d7f3ff"/><path d="m178.953125 257.773438h-25v221.726562c0 13.808594 11.195313 25 25 25v-93.132812c4.140625-2.144532 8.175781-4.5 12.066406-7.101563 3.984375 3.691406 8.328125 6.941406 12.933594 9.742187v-156.234374zm0 0" fill="#bdebff"/><path d="m362.929688 256c0-28.476562-12.234376-54.097656-31.726563-71.894531 6.136719-9.117188 9.722656-20.097657 9.722656-31.917969 0-31.601562-25.617187-57.21875-57.222656-57.21875-.476563 0-.945313.023438-1.417969.035156-8.226562-49.644531-51.351562-87.503906-103.332031-87.503906-50.078125 0-91.941406 35.144531-102.289063 82.117188-34.054687 9.371093-59.074218 40.539062-59.074218 77.570312 0 20.648438 7.78125 39.472656 20.566406 53.71875-19.003906 20.164062-30.65625 47.335938-30.65625 77.234375 0 62.203125 50.425781 112.628906 112.628906 112.628906 27.78125 0 53.207032-10.066406 72.847656-26.738281 11.886719 16.207031 31.0625 26.738281 52.703126 26.738281 36.082031 0 65.332031-29.25 65.332031-65.332031 0-1.105469-.03125-2.203125-.082031-3.292969 30.917968-16.304687 52-48.761719 52-86.144531zm0 0" fill="#ffa5b5"/><path d="m178.953125 172.515625c-9.496094 0-17.195313-7.699219-17.195313-17.199219v-9.925781c0-1.644531 1.328126-2.972656 2.972657-2.972656h28.449219c1.640624 0 2.972656 1.328125 2.972656 2.972656v9.925781c0 9.5-7.699219 17.199219-17.199219 17.199219zm0 0" fill="#222223"/><path d="m298.769531 96.988281c13.476563 10.46875 22.15625 26.816407 22.15625 45.199219 0 31.601562-25.617187 57.222656-57.21875 57.222656-5.21875 0-10.265625-.710937-15.066406-2.019531 9.6875 7.523437 21.847656 12.019531 35.066406 12.019531 31.601563 0 57.21875-25.621094 57.21875-57.222656 0-26.382812-17.867187-48.585938-42.15625-55.199219zm0 0" fill="#ff8da3"/><path d="m355.207031 294.019531c-17.433593 17.835938-41.664062 29.007813-68.507812 29.304688-52.921875.585937-97-41.785157-98.398438-94.6875-.03125-1.191407-.042969-2.378907-.03125-3.5625.117188-12.558594-14.34375-19.664063-24.203125-11.878907-13.6875 9.558594-30.46875 14.984376-48.554687 14.425782-42.222657-1.308594-76.5625-35.644532-77.882813-77.863282-.566406-18.078124 4.855469-34.859374 14.402344-48.542968-20.8125 14.539062-34.441406 38.65625-34.441406 65.976562 0 20.648438 7.78125 39.46875 20.566406 53.714844-19.007812 20.171875-30.664062 47.351562-30.65625 77.257812.011719 61.757813 50.464844 112.386719 112.21875 112.605469 27.941406.097657 53.519531-9.984375 73.257812-26.738281 11.886719 16.207031 31.0625 26.738281 52.703126 26.738281 36.082031 0 65.332031-29.25 65.332031-65.332031 0-1.105469-.03125-2.203125-.082031-3.292969 19.757812-10.421875 35.488281-27.445312 44.277343-48.125zm0 0" fill="#ff8da3"/><path d="m15 298.140625c0-24.304687 8.292969-47.539063 23.492188-66.234375 16.160156 14.863281 37.4375 23.253906 59.570312 23.253906 4.140625 0 7.5-3.359375 7.5-7.5s-3.359375-7.5-7.5-7.5c-20.648438 0-40.402344-8.800781-54.230469-24.148437-.03125-.039063-.058593-.078125-.09375-.113281-12.023437-13.402344-18.648437-30.699219-18.648437-48.707032 0-32.738281 22.027344-61.664062 53.5625-70.34375.085937-.023437.160156-.058594.242187-.082031 6.214844-1.6875 12.660157-2.546875 19.164063-2.546875 9.128906 0 18.027344 1.664062 26.453125 4.941406.894531.347656 1.8125.511719 2.71875.511719 3 0 5.835937-1.816406 6.988281-4.78125 1.503906-3.863281-.40625-8.207031-4.269531-9.710937-10.164063-3.953126-20.894531-5.960938-31.890625-5.960938-3.625 0-7.234375.234375-10.8125.671875 13.542968-38.210937 50.390625-64.890625 91.707031-64.890625 26.535156 0 51.324219 10.492188 69.800781 29.539062 2.886719 2.972657 7.632813 3.046876 10.605469.160157 2.972656-2.882813 3.046875-7.632813.160156-10.605469-21.328125-21.984375-49.9375-34.09375-80.566406-34.09375-25.722656 0-50.855469 8.921875-70.777344 25.125-18.472656 15.027344-31.777343 35.691406-37.792969 58.5625-35.71875 11.828125-60.292968 45.539062-60.292968 83.5 0 19.457031 6.414062 38.226562 18.179687 53.542969-18.277343 21.652343-28.269531 48.886719-28.269531 77.410156 0 26.988281 8.742188 52.484375 25.285156 73.734375 1.480469 1.898438 3.691406 2.894531 5.925782 2.894531 1.609374 0 3.230468-.519531 4.601562-1.585937 3.269531-2.542969 3.855469-7.253906 1.308594-10.523438-14.472656-18.589844-22.121094-40.902344-22.121094-64.519531zm0 0"/><path d="m340.703125 182.871094c5.066406-9.394532 7.722656-19.882813 7.722656-30.683594 0-34.078125-26.476562-62.085938-59.933593-64.542969-2.351563-10.519531-6.203126-20.605469-11.484376-30.0625-2.019531-3.617187-6.589843-4.910156-10.207031-2.890625-3.613281 2.019532-4.910156 6.585938-2.890625 10.203125 5.457032 9.769531 9.148438 20.3125 10.976563 31.335938.601562 3.625 3.734375 6.273437 7.394531 6.273437.0625 0 .125 0 .1875-.003906l.554688-.015625c.230468-.007813.453124-.015625.683593-.015625 27.414063 0 49.71875 22.304688 49.71875 49.71875 0 9.933594-2.917969 19.523438-8.445312 27.726562-.003907.011719-.007813.019532-.015625.027344-9.273438 13.753906-24.695313 21.964844-41.257813 21.964844-10.433593 0-20.417969-3.191406-28.871093-9.234375-3.375-2.410156-8.054688-1.628906-10.464844 1.738281-2.410156 3.371094-1.628906 8.054688 1.738281 10.464844 11.015625 7.871094 24.015625 12.03125 37.597656 12.03125 18.546875 0 35.984375-7.910156 48.179688-21.511719 15.042969 16.476563 23.542969 38.144531 23.542969 60.601563 0 33.433594-18.394532 63.898437-48 79.511718-.023438.011719-.046876.03125-.070313.042969-12.777344 6.722657-27.214844 10.277344-41.761719 10.277344-4.144531 0-7.5 3.359375-7.5 7.5s3.355469 7.5 7.5 7.5c12.746094 0 25.429688-2.34375 37.277344-6.835937-4.148438 27.84375-28.214844 49.273437-57.191406 49.273437-16.085938 0-31.480469-6.8125-42.355469-18.484375 11.6875-11.242188 21.09375-24.832031 27.410156-39.699219 1.617188-3.8125-.160156-8.214843-3.96875-9.835937-3.816406-1.617188-8.21875.160156-9.835937 3.972656-6.355469 14.953125-16.289063 28.445312-28.726563 39.027344-.027343.023437-.054687.039062-.082031.0625-18.957031 16.09375-43.105469 24.957031-67.996094 24.957031-23.617187 0-45.929687-7.652344-64.519531-22.121094-3.269531-2.546875-7.980469-1.960937-10.523437 1.308594-2.546876 3.269531-1.960938 7.980469 1.308593 10.527344 21.25 16.539062 46.746094 25.285156 73.734375 25.285156 8.914063 0 17.738282-1.019531 26.324219-2.949219v64.183594c0 17.921875 14.582031 32.5 32.5 32.5 17.921875 0 32.5-14.578125 32.5-32.5v-69.847656c10.425781 5.558594 22.167969 8.617187 34.230469 8.617187 39.800781 0 72.246094-32.089843 72.820312-71.757812 32.144532-18.796875 51.925782-53.058594 51.925782-90.511719 0-27.316406-10.765626-53.632812-29.726563-73.128906zm-144.25 296.628906c0 9.648438-7.847656 17.5-17.5 17.5-9.648437 0-17.5-7.851562-17.5-17.5v-68.589844c10.828125-3.964844 21.085937-9.472656 30.414063-16.417968 1.460937 1.597656 3 3.105468 4.585937 4.558593zm0 0"/><path d="m164.730469 134.917969c-5.773438 0-10.472657 4.695312-10.472657 10.472656v9.925781c0 13.617188 11.078126 24.699219 24.695313 24.699219 13.621094 0 24.699219-11.082031 24.699219-24.699219v-9.925781c0-5.777344-4.699219-10.472656-10.472656-10.472656zm23.921875 20.398437c0 5.347656-4.351563 9.699219-9.699219 9.699219-5.34375 0-9.695313-4.351563-9.695313-9.699219v-5.398437h19.394532zm0 0"/><path d="m242.644531 124.382812c-4.140625 0-7.5 3.355469-7.5 7.5v11.355469c0 4.140625 3.359375 7.5 7.5 7.5 4.144531 0 7.5-3.359375 7.5-7.5v-11.355469c0-4.144531-3.359375-7.5-7.5-7.5zm0 0"/><path d="m107.765625 131.882812v11.355469c0 4.140625 3.355469 7.5 7.5 7.5s7.5-3.359375 7.5-7.5v-11.355469c0-4.144531-3.355469-7.5-7.5-7.5s-7.5 3.355469-7.5 7.5zm0 0"/><g fill="#f46262"><path d="m248.320312 172.203125h-11.351562c-4.144531 0-7.5-3.359375-7.5-7.5s3.355469-7.5 7.5-7.5h11.351562c4.144532 0 7.5 3.359375 7.5 7.5s-3.355468 7.5-7.5 7.5zm0 0"/><path d="m120.941406 172.203125h-11.351562c-4.144532 0-7.5-3.359375-7.5-7.5s3.355468-7.5 7.5-7.5h11.351562c4.144532 0 7.5 3.359375 7.5 7.5s-3.355468 7.5-7.5 7.5zm0 0"/></g></svg>