<svg height="512pt" viewBox="-61 0 512 512" width="512pt" xmlns="http://www.w3.org/2000/svg"><path d="m298.578125 480h-208.152344c-45.796875 0-82.925781-37.125-82.925781-82.925781v-282.148438c0-45.800781 37.128906-82.925781 82.925781-82.925781h208.152344c45.796875 0 82.921875 37.125 82.921875 82.925781v282.148438c0 45.800781-37.125 82.925781-82.921875 82.925781zm0 0" fill="#ffde55"/><path d="m37.5 397.074219v-282.148438c0-45.800781 37.128906-82.925781 82.925781-82.925781h-30c-45.796875 0-82.925781 37.125-82.925781 82.925781v282.148438c0 45.800781 37.128906 82.925781 82.925781 82.925781h30c-45.796875 0-82.925781-37.125-82.925781-82.925781zm0 0" fill="#ffcd00"/><path d="m355.011719 178.007812c0-28.539062-22.433594-51.835937-50.625-53.226562 1.769531-4.613281 2.746093-9.617188 2.746093-14.847656 0-22.90625-18.566406-41.472656-41.46875-41.472656h-125.089843l-.011719.273437c-1.777344-.179687-3.578125-.273437-5.402344-.273437-29.433594 0-53.292968 23.859374-53.292968 53.292968 0 5.265625.777343 10.347656 2.199218 15.152344-19.304687 3.542969-33.941406 20.445312-33.941406 40.773438 0 18.957031 12.722656 34.929687 30.089844 39.878906-10.609375 11.785156-17.070313 27.375-17.070313 44.480468 0 7.949219 1.394531 15.566407 3.953125 22.628907-19.421875 7.957031-33.109375 27.039062-33.109375 49.324219 0 28.539062 22.433594 51.835937 50.628907 53.226562-1.769532 4.609375-2.75 9.617188-2.75 14.847656 0 22.90625 18.570312 41.472656 41.472656 41.472656h125.085937l.011719-.273437c1.777344.179687 3.578125.273437 5.402344.273437 29.433594 0 53.292968-23.859374 53.292968-53.292968 0-5.265625-.773437-10.347656-2.195312-15.152344 19.304688-3.542969 33.9375-20.445312 33.9375-40.773438 0-18.957031-12.71875-34.929687-30.085938-39.878906 10.609376-11.785156 17.070313-27.375 17.070313-44.480468 0-7.949219-1.398437-15.566407-3.953125-22.628907 19.421875-7.957031 33.105469-27.039062 33.105469-49.324219zm0 0" fill="#7ec66a"/><path d="m170.574219 68.460938h-5.414063c1.824219 0 3.625.09375 5.402344.273437zm0 0" fill="#5aaa4f"/><path d="m111.867188 402.066406c0-2.253906.183593-4.460937.53125-6.617187.695312-4.296875-2.132813-8.441407-6.386719-9.359375-24.019531-5.171875-42.023438-26.53125-42.023438-52.097656 0-20.003907 11.023438-37.421876 27.324219-46.535157 3.195312-1.785156 4.757812-5.511719 3.863281-9.054687-1.328125-5.234375-2.035156-10.714844-2.035156-16.363282 0-13.34375 3.933594-25.765624 10.699219-36.179687 2.683594-4.128906 1.417968-9.746094-2.851563-12.195313-12.464843-7.148437-20.863281-20.582031-20.863281-35.980468 0-17.878906 11.316406-33.109375 27.175781-38.929688 3.652344-1.34375 5.765625-5.101562 5.179688-8.945312-.402344-2.625-.613281-5.316406-.613281-8.054688 0-29.433594 23.859374-53.292968 53.292968-53.292968h-24.585937l-.011719.273437c-1.777344-.179687-3.578125-.273437-5.402344-.273437-29.433594 0-53.292968 23.859374-53.292968 53.292968 0 5.265625.777343 10.347656 2.199218 15.152344-19.308594 3.542969-33.941406 20.445312-33.941406 40.777344 0 18.953125 12.722656 34.925781 30.085938 39.875-10.609376 11.785156-17.070313 27.378906-17.070313 44.484375 0 7.945312 1.398437 15.5625 3.957031 22.625-19.421875 7.957031-33.109375 27.039062-33.109375 49.324219 0 28.539062 22.433594 51.839843 50.628907 53.226562-1.734376 4.519531-2.710938 9.417969-2.75 14.539062-.167969 22.980469 19.242187 41.78125 42.222656 41.78125h29.25c-22.90625 0-41.472656-18.566406-41.472656-41.472656zm0 0" fill="#5aaa4f"/><path d="m194.5 504.5c-37.277344 0-67.5-30.222656-67.5-67.5v-362c0-37.277344 30.222656-67.5 67.5-67.5 37.28125 0 67.5 30.222656 67.5 67.5v362c0 37.277344-30.21875 67.5-67.5 67.5zm0 0" fill="#f46262"/><path d="m157 437v-362c0-32.121094 22.445312-58.984375 52.5-65.804688-4.824219-1.097656-9.839844-1.695312-15-1.695312-37.277344 0-67.5 30.222656-67.5 67.5v362c0 37.277344 30.222656 67.5 67.5 67.5 5.160156 0 10.175781-.597656 15-1.695312-30.054688-6.820313-52.5-33.683594-52.5-65.804688zm0 0" fill="#d65b5b"/><path d="m298.578125 24.5h-48.675781c-13.726563-15.042969-33.480469-24.5-55.402344-24.5s-41.671875 9.457031-55.398438 24.5h-48.675781c-49.859375 0-90.425781 40.5625-90.425781 90.425781v127.074219c0 4.140625 3.359375 7.5 7.5 7.5 4.144531 0 7.5-3.359375 7.5-7.5v-127.074219c0-41.589843 33.835938-75.425781 75.425781-75.425781h38.027344c-3.851563 7.132812-6.566406 14.960938-7.933594 23.242188-12.109375 3-23.089843 9.710937-31.339843 19.242187-9.550782 11.035156-14.8125 25.160156-14.8125 39.769531 0 3.285156.265624 6.558594.792968 9.792969-19.242187 6.824219-32.535156 25.144531-32.535156 46.136719 0 18.128906 10.140625 34.597656 25.625 43.035156-8.1875 12.148438-12.609375 26.496094-12.609375 41.324219 0 6.335937.796875 12.585937 2.375 18.65625-19.355469 10.59375-31.53125 30.835937-31.53125 53.292969 0 29.328124 20.722656 53.9375 48.621094 59.578124-.492188 2.792969-.738281 5.632813-.738281 8.5 0 26.160157 20.617187 47.59375 46.457031 48.90625 1.449219 7.644532 4.042969 14.882813 7.628906 21.523438h-38.027344c-41.589843 0-75.425781-33.835938-75.425781-75.421875v-127.078125c0-4.140625-3.359375-7.5-7.5-7.5s-7.5 3.359375-7.5 7.5v127.074219c0 49.863281 40.5625 90.425781 90.425781 90.425781h48.675781c13.726563 15.042969 33.476563 24.5 55.398438 24.5s41.675781-9.457031 55.402344-24.5h48.675781c49.859375 0 90.421875-40.5625 90.421875-90.425781v-282.148438c0-49.863281-40.5625-90.425781-90.421875-90.425781zm-179.078125 411.316406c-16.929688-1.914062-30.132812-16.316406-30.132812-33.75 0-4.175781.757812-8.269531 2.25-12.160156.863281-2.246094.597656-4.769531-.714844-6.78125-1.3125-2.015625-3.515625-3.277344-5.917969-3.398438-24.390625-1.199218-43.496094-21.289062-43.496094-45.734374 0-18.667969 11.167969-35.304688 28.449219-42.382813 3.722656-1.523437 5.578125-5.710937 4.210938-9.492187-2.328126-6.433594-3.507813-13.1875-3.507813-20.078126 0-14.597656 5.378906-28.613281 15.144531-39.464843 1.734375-1.921875 2.351563-4.601563 1.636719-7.089844-.71875-2.488281-2.664063-4.429687-5.152344-5.140625-14.511719-4.132812-24.644531-17.566406-24.644531-32.660156 0-16.398438 11.6875-30.445313 27.792969-33.402344 2.09375-.382812 3.925781-1.636719 5.039062-3.449219s1.402344-4.015625.800781-6.054687c-1.253906-4.234375-1.890624-8.617188-1.890624-13.019532 0-19.375 12.46875-36.539062 30.132812-43.023437zm135-252.96875v254.152344c0 33.085938-26.914062 60-60 60-33.082031 0-60-26.914062-60-60v-362c0-33.085938 26.917969-60 60-60 33.085938 0 60 26.914062 60 60v81.808594c0 4.144531 3.359375 7.5 7.5 7.5 4.144531 0 7.5-3.355469 7.5-7.5v-80.625c16.929688 1.914062 30.132812 16.316406 30.132812 33.75 0 4.175781-.757812 8.265625-2.25 12.160156-.859374 2.246094-.59375 4.769531.71875 6.785156 1.3125 2.011719 3.511719 3.273438 5.914063 3.394532 24.390625 1.203124 43.496094 21.289062 43.496094 45.734374 0 18.667969-11.167969 35.304688-28.449219 42.386719-3.71875 1.523438-5.578125 5.710938-4.210938 9.492188 2.328126 6.429687 3.507813 13.183593 3.507813 20.074219 0 14.601562-5.378906 28.617187-15.144531 39.464843-1.730469 1.925781-2.347656 4.605469-1.632813 7.09375.714844 2.484375 2.660157 4.429688 5.152344 5.136719 14.507813 4.136719 24.640625 17.566406 24.640625 32.664062 0 16.394532-11.6875 30.441407-27.792969 33.398438-2.09375.382812-3.925781 1.640625-5.039062 3.453125s-1.402344 4.015625-.800781 6.054687c1.253906 4.234376 1.890624 8.613282 1.890624 13.019532 0 19.410156-12.457031 36.542968-30.132812 43.023437v-250.421875c0-4.144531-3.355469-7.5-7.5-7.5-4.140625 0-7.5 3.355469-7.5 7.5zm119.5 214.226563c0 41.589843-33.835938 75.425781-75.421875 75.425781h-38.03125c3.851563-7.136719 6.570313-14.964844 7.9375-23.246094 12.058594-2.992187 23-9.652344 31.246094-19.132812 9.609375-11.050782 14.902343-25.214844 14.902343-39.875 0-3.285156-.265624-6.558594-.792968-9.792969 19.242187-6.824219 32.535156-25.144531 32.535156-46.132813 0-18.132812-10.140625-34.601562-25.625-43.039062 8.1875-12.148438 12.609375-26.496094 12.609375-41.320312 0-6.339844-.800781-12.589844-2.378906-18.660157 19.359375-10.589843 31.53125-30.835937 31.53125-53.292969 0-29.328124-20.722657-53.933593-48.617188-59.578124.488281-2.792969.738281-5.628907.738281-8.496094 0-26.160156-20.617187-47.597656-46.457031-48.910156-1.449219-7.640626-4.046875-14.882813-7.628906-21.523438h38.027344c41.589843 0 75.425781 33.835938 75.425781 75.425781zm0 0"/><path d="m214.011719 425.167969h-56.984375c-4.144532 0-7.5-3.359375-7.5-7.5 0-4.144531 3.355468-7.5 7.5-7.5h56.984375c5.769531 0 10.464843-4.695313 10.464843-10.464844s-4.695312-10.460937-10.464843-10.460937h-39.023438c-14.039062 0-25.460937-11.421876-25.460937-25.464844 0-14.039063 11.421875-25.460938 25.460937-25.460938h39.023438c5.769531 0 10.464843-4.695312 10.464843-10.464844 0-5.769531-4.695312-10.460937-10.464843-10.460937h-39.023438c-14.039062 0-25.460937-11.425781-25.460937-25.464844 0-14.039062 11.421875-25.460937 25.460937-25.460937h39.023438c5.769531 0 10.464843-4.695313 10.464843-10.464844s-4.695312-10.464844-10.464843-10.464844h-39.023438c-14.039062 0-25.460937-11.421875-25.460937-25.460937 0-14.039063 11.421875-25.464844 25.460937-25.464844h39.023438c5.769531 0 10.464843-4.691406 10.464843-10.460937 0-5.769532-4.695312-10.464844-10.464843-10.464844h-39.023438c-14.039062 0-25.460937-11.421875-25.460937-25.460938 0-14.042968 11.421875-25.464844 25.460937-25.464844h39.023438c5.769531 0 10.464843-4.691406 10.464843-10.460937s-4.695312-10.464844-10.464843-10.464844h-56.984375c-4.144532 0-7.5-3.355469-7.5-7.5 0-4.140625 3.355468-7.5 7.5-7.5h56.984375c14.042969 0 25.464843 11.425781 25.464843 25.464844s-11.421874 25.460937-25.464843 25.460937h-39.023438c-5.769531 0-10.460937 4.695313-10.460937 10.464844 0 5.769532 4.691406 10.460938 10.460937 10.460938h39.023438c14.042969 0 25.464843 11.421875 25.464843 25.464844 0 14.039062-11.421874 25.460937-25.464843 25.460937h-39.023438c-5.769531 0-10.460937 4.695313-10.460937 10.464844s4.691406 10.460937 10.460937 10.460937h39.023438c14.042969 0 25.464843 11.425782 25.464843 25.464844s-11.421874 25.464844-25.464843 25.464844h-39.023438c-5.769531 0-10.460937 4.691406-10.460937 10.460937s4.691406 10.464844 10.460937 10.464844h39.023438c14.042969 0 25.464843 11.421875 25.464843 25.460937 0 14.039063-11.421874 25.464844-25.464843 25.464844h-39.023438c-5.769531 0-10.460937 4.691406-10.460937 10.460938 0 5.769531 4.691406 10.464844 10.460937 10.464844h39.023438c14.042969 0 25.464843 11.421874 25.464843 25.460937s-11.421874 25.464844-25.464843 25.464844zm0 0" fill="#eaeaea"/></svg>