<svg height="512pt" viewBox="0 0 512.00138 512" width="512pt" xmlns="http://www.w3.org/2000/svg"><path d="m160.414062 489.296875c11.125-17.449219 25.269532-38.433594 39.148438-55.714844 29.679688-36.949219 56.9375-50.878906 98.324219-84.605469 41.382812-33.722656 65.828125-62.585937 88.261719-93.5 22.433593-30.914062 35.714843-112.035156 61.15625-137.476562 25.4375-25.441406 35.128906-35.128906 35.128906-35.128906l-26.648438-26.652344-26.652344-26.652344s-9.691406 9.691406-35.132812 35.132813c-25.441406 25.4375-106.5625 38.71875-137.476562 61.152343-30.914063 22.4375-59.773438 46.878907-93.5 88.265626-33.722657 41.382812-47.65625 68.640624-84.605469 98.320312-17.277344 13.882812-38.265625 28.023438-55.714844 39.152344-17.738281 11.308594-20.429687 36.136718-5.550781 51.011718l46.121094 46.125 46.125 46.125c14.875 14.875 39.703124 12.183594 51.015624-5.554687zm0 0" fill="#d7f3ff"/><path d="m454.640625 110.664062c19.984375-19.984374 27.792969-27.792968 27.792969-27.792968l-26.648438-26.652344-26.652344-26.652344s-7.8125 7.8125-27.796874 27.792969zm0 0" fill="#bdebff"/><path d="m50.988281 379.871094c17.449219-11.125 38.4375-25.269532 55.714844-39.148438 36.949219-29.679687 50.878906-56.9375 84.605469-98.324218 33.726562-41.382813 62.585937-65.828126 93.5-88.261719 30.914062-22.433594 112.035156-35.714844 137.476562-61.15625 25.441406-25.441407 35.132813-35.132813 35.132813-35.132813l-1.632813-1.628906-26.652344-26.652344s-9.691406 9.691406-35.132812 35.132813c-25.4375 25.4375-106.5625 38.71875-137.476562 61.152343-30.914063 22.4375-59.773438 46.878907-93.5 88.265626-33.722657 41.382812-47.65625 68.640624-84.605469 98.320312-17.277344 13.878906-38.265625 28.023438-55.714844 39.152344-17.738281 11.308594-20.429687 36.136718-5.550781 51.011718l28.28125 28.285157c-14.875-14.875-12.183594-39.703125 5.554687-51.015625zm0 0" fill="#bdebff"/><path d="m348.433594 104.933594c-7.53125 2.707031-15.351563 5.355468-23.285156 8.042968-23.359376 7.910157-47.515626 16.089844-59.816407 25.015626-26.597656 19.304687-55.992187 43.03125-90.679687 85.597656-10.035156 12.3125-18.171875 23.203125-26.039063 33.734375-18.019531 24.117187-33.582031 44.941406-60.800781 66.808593-14.941406 12-34.132812 25.492188-57.046875 40.101563-4.589844 2.929687-7.5625 7.714844-8.15625 13.132813-.59375 5.433593 1.28125 10.765624 5.148437 14.628906l92.246094 92.246094c3.390625 3.390624 7.878906 5.253906 12.648438 5.253906 6.160156 0 11.8125-3.089844 15.113281-8.265625 14.605469-22.90625 28.097656-42.097657 40.101563-57.042969 21.867187-27.222656 42.695312-42.78125 66.808593-60.800781 10.53125-7.871094 21.421875-16.003907 33.734375-26.039063 42.5625-34.6875 66.292969-64.082031 85.597656-90.679687 8.925782-12.300781 17.105469-36.457031 25.015626-59.820313 11.003906-32.488281 21.394531-63.175781 37.671874-79.453125l2.460938-2.460937zm0 0" fill="#444346"/><path d="m191.308594 242.398438c33.726562-41.382813 62.585937-65.828126 93.5-88.261719 25.691406-18.644531 86.058594-30.96875 120.328125-49.203125h-56.699219c-7.535156 2.707031-15.355469 5.355468-23.285156 8.042968-23.359375 7.910157-47.515625 16.089844-59.816406 25.015626-26.597657 19.304687-55.996094 43.03125-90.683594 85.597656-10.03125 12.3125-18.167969 23.203125-26.039063 33.734375-18.019531 24.117187-33.578125 44.941406-60.800781 66.808593-14.9375 12-34.132812 25.492188-57.042969 40.101563-4.59375 2.929687-7.566406 7.714844-8.160156 13.132813-.589844 5.433593 1.285156 10.765624 5.148437 14.628906l8.757813 8.753906c1.746094-8.246094 6.636719-15.882812 14.472656-20.878906 17.449219-11.125 38.4375-25.269532 55.714844-39.148438 36.949219-29.679687 50.878906-56.9375 84.605469-98.324218zm0 0" fill="#222223"/><path d="m468.328125 103.136719-59.460937-59.464844c-2.398438-2.394531-2.398438-6.285156 0-8.679687l25.691406-25.695313c2.398437-2.394531 6.285156-2.394531 8.683594 0l59.460937 59.464844c2.394531 2.394531 2.394531 6.285156 0 8.679687l-25.695313 25.695313c-2.394531 2.398437-6.28125 2.398437-8.679687 0zm0 0" fill="#f46262"/><path d="m437.148438 63.277344 25.695312-25.695313c2.398438-2.398437 6.285156-2.394531 8.679688 0l-28.28125-28.285156c-2.398438-2.394531-6.285157-2.394531-8.683594 0l-25.691406 25.695313c-2.398438 2.394531-2.398438 6.285156 0 8.679687l28.28125 28.285156c-2.394532-2.398437-2.394532-6.285156 0-8.679687zm0 0" fill="#d65b5b"/><path d="m256.523438 125.851562c-29.992188 21.765626-58.050782 45.425782-90.492188 84.605469l135.511719 135.515625c39.183593-32.441406 62.839843-60.503906 84.605469-90.496094 6.023437-8.300781 11.386718-20.238281 16.503906-33.726562l-112.402344-112.398438c-13.488281 5.117188-25.425781 10.476563-33.726562 16.5zm0 0" fill="#f46262"/><path d="m275.753906 236.25c-6.714844-6.71875-6.714844-17.605469 0-24.324219l7.019532-7.019531c1.160156-1.160156 3.042968-1.160156 4.203124 0l20.117188 20.117188c1.160156 1.164062 1.160156 3.042968 0 4.207031l-7.019531 7.015625c-6.714844 6.71875-17.605469 6.71875-24.320313.003906zm0 0" fill="#222223"/><path d="m284.808594 154.136719c8.300781-6.023438 20.234375-11.386719 33.726562-16.5l-28.285156-28.285157c-13.488281 5.117188-25.425781 10.476563-33.726562 16.5-29.992188 21.765626-58.050782 45.425782-90.492188 84.605469l28.28125 28.285157c32.445312-39.183594 60.503906-62.839844 90.496094-84.605469zm0 0" fill="#d65b5b"/><path d="m508.007812 63.457031-59.464843-59.460937c-2.574219-2.578125-6-3.996094-9.644531-3.996094-3.640626 0-7.066407 1.417969-9.644532 3.996094l-25.691406 25.691406c-4.550781 4.550781-5.195312 11.539062-1.953125 16.796875l-12.914063 12.910156c-12.5625 12.5625-42.148437 22.582031-70.761718 32.269531-26.097656 8.839844-50.75 17.1875-65.816406 28.121094-27.050782 19.628906-56.871094 43.644532-91.871094 85.902344-.019532.023438-.042969.046875-.0625.074219-.988282 1.191406-1.976563 2.394531-2.972656 3.617187-10.335938 12.679688-18.988282 24.261719-26.621094 34.476563-17.808594 23.832031-31.871094 42.65625-56.867188 62.734375-14.304687 11.492187-32.828125 24.5-55.050781 38.671875-10.375 6.617187-17.089844 17.425781-18.429687 29.660156-1.335938 12.25 2.890624 24.269531 11.605468 32.980469l92.25 92.25c7.652344 7.652344 17.855469 11.847656 28.527344 11.847656 1.476562 0 2.964844-.082031 4.453125-.242188 12.234375-1.339843 23.042969-8.054687 29.660156-18.429687 14.164063-22.21875 27.175781-40.738281 38.671875-55.046875 1.105469-1.375 2.207032-2.71875 3.304688-4.03125 2.660156-3.175781 2.238281-7.90625-.9375-10.566406-3.171875-2.65625-7.90625-2.238282-10.5625.9375-1.164063 1.390625-2.328125 2.808594-3.5 4.265625-11.832032 14.730469-25.167969 33.699219-39.625 56.378906-4.15625 6.519531-10.949219 10.738281-18.640625 11.582031-7.703125.84375-15.265625-1.820312-20.746094-7.300781l-92.25-92.246094c-5.480469-5.484375-8.140625-13.042969-7.296875-20.746093.839844-7.691407 5.0625-14.484376 11.578125-18.640626 22.6875-14.464843 41.652344-27.796874 56.378906-39.628906 26.480469-21.269531 41.78125-41.742187 59.492188-65.449218 7.316406-9.792969 14.886719-19.910157 23.992187-31.207032l39.777344 39.78125c1.460938 1.460938 3.382812 2.195313 5.300781 2.195313s3.839844-.730469 5.304688-2.195313c2.929687-2.929687 2.929687-7.679687 0-10.609375l-40.785157-40.785156c32.058594-37.753906 59.625-59.871094 84.734376-78.089844 6.726562-4.882812 16.425781-9.445312 27.472656-13.816406l105.488281 105.488281c-4.367187 11.050782-8.929687 20.75-13.8125 27.476563-18.222656 25.109375-40.339844 52.675781-78.09375 84.734375l-65.667969-65.671875c-2.929687-2.929688-7.679687-2.929688-10.609375 0-2.925781 2.929687-2.925781 7.679687 0 10.605469l64.664063 64.664062c-11.292969 9.105469-21.410156 16.675781-31.207032 23.992188-15.671874 11.710937-29.210937 21.824218-42.710937 34.691406-2.996094 2.855468-3.113281 7.601562-.253906 10.601562 1.472656 1.546875 3.449219 2.328125 5.429687 2.328125 1.859375 0 3.722656-.6875 5.171875-2.070312 12.851563-12.246094 26.054688-22.109375 41.339844-33.535157 10.21875-7.636718 21.804687-16.289062 34.484375-26.621093 1.222656-.996094 2.421875-1.988281 3.613281-2.976563.027344-.019531.050781-.039062.078125-.058594 42.253906-35 66.269532-64.820312 85.902344-91.875 10.933594-15.0625 19.277344-39.714843 28.117188-65.816406 9.691406-28.613281 19.707031-58.199218 32.273437-70.761718l12.90625-12.90625c2.132813 1.316406 4.582031 2.035156 7.152344 2.035156 3.644531 0 7.070312-1.417969 9.644531-3.992188l25.695312-25.695312c2.574219-2.574219 3.992188-6 3.992188-9.644532 0-3.644531-1.417969-7.066406-3.992188-9.644531zm-66.007812 49.238281c-15.039062 15.042969-25.628906 46.316407-35.871094 76.558594-2.136718 6.3125-4.296875 12.679688-6.488281 18.878906l-95.773437-95.773437c6.199218-2.191406 12.566406-4.351563 18.878906-6.488281 30.242187-10.242188 61.519531-20.832032 76.558594-35.871094l12.640624-12.640625 42.695313 42.695313zm30.667969-15.824218-2.113281-2.113282s0-.003906-.003907-.003906c0-.003906-.003906-.003906-.003906-.003906l-53.292969-53.296875c-.003906 0-.003906 0-.007812-.003906 0 0 0-.003907-.003906-.003907l-2.113282-2.113281 23.769532-23.765625 57.539062 57.535156zm0 0"/><path d="m270.449219 241.550781c4.664062 4.664063 10.867187 7.234375 17.464843 7.234375 6.597657 0 12.800782-2.570312 17.464844-7.234375l7.019532-7.019531c4.082031-4.082031 4.082031-10.726562 0-14.808594l-20.121094-20.121094c-1.976563-1.976562-4.605469-3.066406-7.402344-3.066406s-5.425781 1.089844-7.40625 3.070313l-7.019531 7.015625c-4.664063 4.667968-7.234375 10.871094-7.234375 17.464844 0 6.597656 2.570312 12.800781 7.234375 17.464843zm10.605469-24.320312 3.820312-3.820313 13.714844 13.71875-3.820313 3.816406c-1.832031 1.832032-4.265625 2.839844-6.855469 2.839844-2.589843 0-5.027343-1.007812-6.859374-2.839844-1.832032-1.832031-2.839844-4.265624-2.839844-6.855468s1.007812-5.027344 2.839844-6.859375zm0 0"/><path d="m346.792969 265.882812 8.027343-8.027343c2.929688-2.929688 2.929688-7.679688 0-10.605469-2.925781-2.929688-7.675781-2.929688-10.605468 0l-8.027344 8.027344c-2.929688 2.929687-2.929688 7.679687 0 10.605468 1.464844 1.464844 3.382812 2.199219 5.300781 2.199219 1.921875 0 3.839844-.734375 5.304688-2.199219zm0 0"/><path d="m254.144531 157.179688-8.027343 8.027343c-2.929688 2.929688-2.929688 7.679688 0 10.605469 1.464843 1.464844 3.382812 2.199219 5.304687 2.199219 1.917969 0 3.835937-.734375 5.300781-2.199219l8.03125-8.027344c2.925782-2.929687 2.925782-7.679687 0-10.605468-2.929687-2.929688-7.679687-2.929688-10.609375 0zm0 0"/><g fill="#eaeaea"><path d="m330.324219 287.273438c-1.917969 0-3.835938-.730469-5.300781-2.195313l-8.027344-8.03125c-2.929688-2.925781-2.929688-7.675781 0-10.605469 2.925781-2.929687 7.675781-2.929687 10.605468 0l8.027344 8.03125c2.929688 2.929688 2.929688 7.675782 0 10.605469-1.464844 1.464844-3.382812 2.195313-5.304687 2.195313zm0 0"/><path d="m240.257812 197.203125c-1.921874 0-3.839843-.730469-5.304687-2.195313l-8.027344-8.027343c-2.929687-2.929688-2.929687-7.679688 0-10.609375 2.925781-2.925782 7.675781-2.925782 10.605469 0l8.027344 8.03125c2.929687 2.929687 2.929687 7.675781 0 10.605468-1.464844 1.464844-3.382813 2.195313-5.300782 2.195313zm0 0"/></g></svg>