<svg height="512pt" viewBox="-40 0 512 512.003" width="512pt" xmlns="http://www.w3.org/2000/svg"><path d="m325.984375 72.183594h29.8125v230.222656h-29.8125zm0 0" fill="#57565c"/><path d="m76.195312 72.183594h29.8125v230.222656h-29.8125zm0 0" fill="#57565c"/><path d="m76.195312 72.183594h14.90625v230.222656h-14.90625zm0 0" fill="#444346"/><path d="m325.984375 72.183594h14.90625v230.222656h-14.90625zm0 0" fill="#444346"/><path d="m383.84375 15.007812c-2.824219-4.660156-7.878906-7.507812-13.328125-7.507812h-309.039063c-5.449218 0-10.503906 2.847656-13.328124 7.507812l-40.3125 66.527344h416.320312zm0 0" fill="#ffeb99"/><path d="m61.476562 7.5h56.539063l-26.914063 74.035156h-83.265624l40.3125-66.527344c2.824218-4.660156 7.878906-7.507812 13.328124-7.507812zm0 0" fill="#f46262"/><path d="m91.289062 7.5h-29.8125c-5.449218 0-10.503906 2.847656-13.328124 7.507812l-40.3125 66.527344h29.816406l40.308594-66.527344c2.824218-4.660156 7.878906-7.507812 13.328124-7.507812zm0 0" fill="#d65b5b"/><path d="m183.335938 7.5h65.320312l8.972656 74.035156h-83.265625zm0 0" fill="#f46262"/><path d="m183.335938 7.5-8.972657 74.035156h29.8125l8.972657-74.035156zm0 0" fill="#d65b5b"/><path d="m313.976562 7.5h56.539063c5.449219 0 10.503906 2.847656 13.328125 7.507812l40.3125 66.527344h-83.265625zm0 0" fill="#f46262"/><path d="m313.976562 7.5 26.914063 74.035156h29.816406l-26.917969-74.035156zm0 0" fill="#d65b5b"/><path d="m7.835938 81.535156h83.265624v43.175782c0 22.992187-18.640624 41.628906-41.632812 41.628906s-41.632812-18.636719-41.632812-41.628906zm0 0" fill="#d65b5b"/><path d="m37.648438 124.710938v-43.175782h-29.8125v43.175782c0 22.992187 18.640624 41.628906 41.632812 41.628906 5.253906 0 10.277344-.980469 14.90625-2.757813-15.628906-5.996093-26.726562-21.136719-26.726562-38.871093zm0 0" fill="#bf4c4c"/><path d="m91.097656 81.535156h83.265625v43.175782c0 22.992187-18.640625 41.628906-41.632812 41.628906-22.992188 0-41.632813-18.636719-41.632813-41.628906zm0 0" fill="#ffde55"/><path d="m120.914062 124.710938v-43.175782h-29.816406v43.175782c0 22.992187 18.640625 41.628906 41.632813 41.628906 5.257812 0 10.277343-.980469 14.90625-2.757813-15.625-5.996093-26.722657-21.136719-26.722657-38.871093zm0 0" fill="#ffcd00"/><path d="m174.363281 81.535156h83.265625v43.175782c0 22.992187-18.640625 41.628906-41.632812 41.628906-22.992188 0-41.632813-18.636719-41.632813-41.628906zm0 0" fill="#d65b5b"/><path d="m204.175781 124.710938v-43.175782h-29.8125v43.175782c0 22.992187 18.640625 41.628906 41.632813 41.628906 5.253906 0 10.277344-.980469 14.90625-2.757813-15.625-5.996093-26.726563-21.136719-26.726563-38.871093zm0 0" fill="#bf4c4c"/><path d="m257.628906 81.535156h83.261719v43.175782c0 22.992187-18.636719 41.628906-41.632813 41.628906-22.992187 0-41.628906-18.636719-41.628906-41.628906zm0 0" fill="#ffde55"/><path d="m287.441406 124.710938v-43.175782h-29.8125v43.175782c0 22.992187 18.636719 41.628906 41.628906 41.628906 5.257813 0 10.277344-.980469 14.910157-2.757813-15.628907-5.996093-26.726563-21.136719-26.726563-38.871093zm0 0" fill="#ffcd00"/><path d="m340.890625 81.535156h83.265625v43.175782c0 22.992187-18.640625 41.628906-41.632812 41.628906-22.992188 0-41.632813-18.636719-41.632813-41.628906zm0 0" fill="#d65b5b"/><path d="m370.707031 124.710938v-43.175782h-29.816406v43.175782c0 22.992187 18.640625 41.628906 41.632813 41.628906 5.253906 0 10.277343-.980469 14.90625-2.757813-15.625-5.996093-26.722657-21.136719-26.722657-38.871093zm0 0" fill="#bf4c4c"/><path d="m25.683594 301.910156h380.621094v177.746094h-380.621094zm0 0" fill="#bdebff"/><path d="m25.683594 342.253906h61.933594l95.65625 78.445313c9.152343 7.507812 20.714843 11.644531 32.554687 11.644531s23.402344-4.136719 32.558594-11.644531l95.652343-78.445313h62.269532v-40.34375h-380.625zm0 0" fill="#92d8ff"/><path d="m25.683594 301.910156h50v177.746094h-50zm0 0" fill="#92d8ff"/><path d="m414.816406 327.253906h-397.976562c-5.15625 0-9.339844-4.183594-9.339844-9.34375v-31.007812c0-5.160156 4.183594-9.339844 9.339844-9.339844h397.976562c5.15625 0 9.339844 4.179688 9.339844 9.339844v31.007812c0 5.160156-4.183594 9.34375-9.339844 9.34375zm0 0" fill="#d7f3ff"/><path d="m414.816406 504.5h-397.976562c-5.15625 0-9.339844-4.183594-9.339844-9.339844v-31.011718c0-5.15625 4.183594-9.339844 9.339844-9.339844h397.976562c5.15625 0 9.339844 4.183594 9.339844 9.339844v31.011718c0 5.15625-4.183594 9.339844-9.339844 9.339844zm0 0" fill="#d7f3ff"/><path d="m57.191406 317.910156v-31.007812c0-5.160156 4.179688-9.339844 9.339844-9.339844h-49.691406c-5.15625 0-9.339844 4.179688-9.339844 9.339844v31.007812c0 5.160156 4.183594 9.34375 9.339844 9.34375h49.691406c-5.160156 0-9.339844-4.183594-9.339844-9.34375zm0 0" fill="#bdebff"/><path d="m57.191406 495.160156v-31.011718c0-5.15625 4.179688-9.339844 9.339844-9.339844h-49.691406c-5.15625 0-9.339844 4.183594-9.339844 9.339844v31.011718c0 5.15625 4.183594 9.339844 9.339844 9.339844h49.691406c-5.160156 0-9.339844-4.183594-9.339844-9.339844zm0 0" fill="#bdebff"/><path d="m118.015625 7.5-26.917969 74.035156h29.816406l26.914063-74.035156zm0 0" fill="#ffde55"/><path d="m248.65625 7.5 8.972656 74.035156h29.8125l-8.972656-74.035156zm0 0" fill="#ffde55"/><path d="m215.828125 277.5625h-183.4375l160.394531 131.539062c13.398438 10.988282 32.691406 10.988282 46.089844 0l160.390625-131.539062zm0 0" fill="#f46262"/><path d="m82.390625 277.5625h-50l160.394531 131.539062c13.398438 10.988282 32.691406 10.988282 46.089844 0l1.953125-1.605468zm0 0" fill="#d65b5b"/><path d="m382.523438 173.839844c27.089843 0 49.132812-22.039063 49.132812-49.128906v-43.175782c0-.019531-.003906-.042968-.003906-.066406 0-.070312-.007813-.144531-.011719-.214844-.007813-.234375-.027344-.464844-.054687-.695312-.011719-.085938-.027344-.167969-.039063-.253906-.042969-.238282-.089844-.472657-.152344-.703126-.015625-.058593-.027343-.117187-.046875-.175781-.085937-.296875-.1875-.585937-.308594-.867187-.011718-.023438-.023437-.046875-.035156-.070313-.113281-.253906-.242187-.5-.382812-.738281-.019532-.03125-.03125-.066406-.050782-.101562l-40.3125-66.527344c-4.15625-6.859375-11.71875-11.121094-19.742187-11.121094h-309.039063c-8.023437 0-15.589843 4.261719-19.742187 11.121094l-40.3125 66.527344c-.019531.035156-.035156.070312-.050781.101562-.140625.238281-.269532.484375-.382813.738281-.011719.023438-.023437.046875-.035156.070313-.121094.28125-.222656.570312-.3125.871094-.015625.054687-.027344.113281-.042969.171874-.0625.230469-.113281.464844-.152344.703126-.015624.085937-.027343.171874-.039062.253906-.03125.230468-.046875.460937-.058594.695312 0 .074219-.007812.144532-.007812.214844 0 .023438-.003906.046875-.003906.070312v43.171876c0 27.089843 22.039062 49.132812 49.132812 49.132812 6.816406 0 13.316406-1.402344 19.222656-3.921875v100.140625h-36.300781c-.011719 0-.023437 0-.035156 0h-15.515625c-9.285156 0-16.839844 7.554688-16.839844 16.839844v31.011718c0 9.285157 7.554688 16.839844 16.839844 16.839844h1.34375v112.558594h-1.34375c-9.285156 0-16.839844 7.554688-16.839844 16.839844v31.011718c0 9.285157 7.554688 16.839844 16.839844 16.839844h397.976562c9.285156 0 16.839844-7.554687 16.839844-16.839844v-31.011718c0-9.285156-7.554688-16.839844-16.839844-16.839844h-1.007812v-112.558594h1.007812c9.285156 0 16.839844-7.558594 16.839844-16.84375v-31.007812c0-9.285156-7.554688-16.839844-16.839844-16.839844h-15.511718c-.015626 0-.027344 0-.042969 0h-35.964844v-100.140625c5.910156 2.519531 12.40625 3.917969 19.226563 3.917969zm-105.867188 96.222656c-4.144531 0-7.5 3.359375-7.5 7.5 0 4.144531 3.355469 7.5 7.5 7.5h101.636719l-44.371094 36.390625c-.011719.007813-.019531.015625-.03125.023437l-99.773437 81.828126c-10.597657 8.6875-25.980469 8.6875-36.578126 0l-144.175781-118.242188h195.292969c4.140625 0 7.5-3.355469 7.5-7.5 0-4.140625-3.359375-7.5-7.5-7.5h-135.148438v-100.140625c5.90625 2.519531 12.40625 3.917969 19.222657 3.917969 17.53125 0 32.933593-9.234375 41.632812-23.085938 8.699219 13.851563 24.101563 23.085938 41.632813 23.085938 17.527344 0 32.933594-9.234375 41.632812-23.085938 8.695313 13.851563 24.101563 23.085938 41.628906 23.085938 6.820313 0 13.320313-1.398438 19.226563-3.917969v100.140625zm-178.058594-181.027344h68.265625v35.675782c0 18.816406-15.3125 34.128906-34.132812 34.128906-18.820313 0-34.132813-15.3125-34.132813-34.128906zm76.273438-74.035156-7.152344 59.035156h-65.910156l21.460937-59.035156zm67.136718 0 7.15625 59.035156h-66.335937l7.152344-59.035156zm66.714844 0 21.460938 59.035156h-65.910156l-7.15625-59.035156zm-58.59375 109.710938c0 18.816406-15.3125 34.128906-34.132812 34.128906-18.820313 0-34.132813-15.3125-34.132813-34.128906v-35.675782h68.265625zm49.128906 34.128906c-18.816406 0-34.128906-15.3125-34.128906-34.128906v-35.675782h68.261719v35.675782c0 18.816406-15.3125 34.128906-34.132813 34.128906zm83.265626 0c-18.820313 0-34.132813-15.3125-34.132813-34.128906v-35.675782h68.265625v35.675782c0 18.816406-15.3125 34.128906-34.132812 34.128906zm-5.09375-139.945313 33.410156 55.144531h-64.695313l-21.460937-59.039062h45.832031c2.808594 0 5.457031 1.492188 6.914063 3.894531zm-322.867188 0c1.453125-2.402343 4.105469-3.894531 6.914062-3.894531h45.832032l-21.464844 59.035156h-64.691406zm-39.226562 105.816407v-35.675782h68.265624v35.675782c0 18.816406-15.3125 34.128906-34.132812 34.128906s-34.132812-15.3125-34.132812-34.128906zm68.359374 35.199218c2.816407-2.738281 5.304688-5.8125 7.40625-9.15625 2.097657 3.34375 4.589844 6.417969 7.40625 9.15625v110.152344h-14.8125zm-68.695312 158v-31.007812c0-1.015625.828125-1.839844 1.839844-1.839844h12.871094l42.296874 34.6875h-46.285156c-.011718 0-.023437 0-.039062 0-.011719 0-.023438 0-.039063 0h-8.804687c-1.011719.003906-1.839844-.824219-1.839844-1.839844zm383.804688 129.402344h-65.367188c-4.144531 0-7.5 3.355469-7.5 7.5 0 4.140625 3.355469 7.5 7.5 7.5h81.378906c1.011719 0 1.839844.824219 1.839844 1.839844v31.007812c0 1.015625-.828125 1.839844-1.839844 1.839844h-397.976562c-1.011719 0-1.839844-.824219-1.839844-1.839844v-31.007812c0-1.015625.828125-1.839844 1.839844-1.839844h288.597656c4.144531 0 7.5-3.359375 7.5-7.5 0-4.144531-3.355469-7.5-7.5-7.5h-272.253906v-112.558594h57.113281l97.730469 80.144532c8.054687 6.605468 17.925781 9.910156 27.800781 9.910156 9.871094 0 19.746094-3.304688 27.800781-9.910156l97.726563-80.144532h57.449219zm17.851562-160.410156v31.007812c0 1.015625-.828125 1.84375-1.839844 1.84375h-55.167968l42.300781-34.691406h12.867187c1.011719 0 1.839844.824219 1.839844 1.839844zm-68.359375-16.839844h-14.8125v-110.152344c2.816406-2.738281 5.308594-5.8125 7.40625-9.15625 2.101563 3.34375 4.589844 6.417969 7.40625 9.15625zm0 0"/></svg>