<svg height="512pt" viewBox="0 0 512.00092 512" width="512pt" xmlns="http://www.w3.org/2000/svg"><path d="m480.175781 348.828125-451.445312 154.714844c-12.605469 4.320312-24.664063-7.738281-20.347657-20.34375l155.976563-455.246094 239.503906 80.113281zm0 0" fill="#ffde55"/><path d="m301.230469 209.429688c-6.847657-6.84375-6.847657-17.941407 0-24.785157l7.152343-7.15625c1.183594-1.179687 3.101563-1.179687 4.285157 0l20.5 20.503907c1.183593 1.183593 1.183593 3.101562 0 4.285156l-7.152344 7.152344c-6.84375 6.84375-17.941406 6.84375-24.785156 0zm0 0" fill="#222223"/><path d="m164.359375 27.953125-20.550781 59.980469c5.5625.9375 11.339844.84375 17.058594-.382813 74.121093-15.871093 150.238281 6.519531 203.613281 59.898438 53.378906 53.375 75.769531 129.496093 59.898437 203.613281-1.222656 5.703125-1.324218 11.46875-.390625 17.023438l56.1875-19.257813-76.3125-240.765625zm0 0" fill="#ffcd00"/><path d="m200.390625 63.984375 6.703125-21.734375-42.734375-14.296875-155.976563 455.246094c-4.316406 12.605469 7.742188 24.664062 20.347657 20.34375l23.859375-8.175781zm0 0" fill="#ffcd00"/><path d="m417.519531 94.410156c-74.007812-74.003906-177.363281-100.738281-272.597656-80.238281-10.984375 2.363281-19.660156 10.792969-22.492187 21.667969-5.617188 21.554687 13.453124 41.429687 35.238281 36.765625 76.0625-16.289063 158.640625 5.050781 217.625 64.03125 58.980469 58.984375 80.320312 141.5625 64.03125 217.628906-4.664063 21.78125 15.210937 40.851563 36.769531 35.234375 10.871094-2.835938 19.300781-11.511719 21.664062-22.492188 20.5-95.234374-6.234374-198.589843-80.238281-272.597656zm0 0" fill="#ffeb99"/><path d="m460.945312 332.648438c16.285157-76.066407-5.054687-158.644532-64.035156-217.628907-58.980468-58.980469-141.5625-80.320312-217.625-64.03125-21.722656 4.648438-40.742187-15.097656-35.277344-36.585937-10.546874 2.628906-18.824218 10.871094-21.578124 21.4375-5.617188 21.554687 13.453124 41.429687 35.234374 36.765625 76.066407-16.289063 158.644532 5.050781 217.625 64.03125 58.980469 58.984375 80.324219 141.5625 64.035157 217.628906-4.664063 21.78125 15.210937 40.851563 36.765625 35.234375 10.566406-2.753906 18.808594-11.03125 21.4375-21.578125-21.484375 5.464844-41.234375-13.554687-36.582032-35.273437zm0 0" fill="#ffde55"/><path d="m283.535156 353.175781c-21.863281-21.863281-57.3125-21.863281-79.175781 0-21.867187 21.863281-21.867187 57.3125 0 79.175781 2.976563 2.980469 6.214844 5.535157 9.625 7.703126l82.640625-28.320313c7.101562-19.765625 2.742188-42.722656-13.089844-58.558594zm0 0" fill="#ff7956"/><path d="m21.355469 445.335938c21.875 15.683593 52.503906 13.710937 72.15625-5.945313 21.867187-21.863281 21.867187-57.3125 0-79.175781-10.371094-10.375-23.804688-15.816406-37.390625-16.34375zm0 0" fill="#ff7956"/><path d="m21.355469 445.335938c13.335937 9.5625 29.921875 12.558593 45.296875 8.984374l30.761718-89.777343c-1.214843-1.492188-2.511718-2.9375-3.902343-4.328125-10.371094-10.375-23.804688-15.816406-37.390625-16.34375zm0 0" fill="#ff6243"/><path d="m199.203125 133.496094c-17.628906-17.628906-42.625-23.382813-65.082031-17.292969l-36.003906 105.09375c1.867187 2.476563 3.914062 4.863281 6.171874 7.117187 26.210938 26.210938 68.703126 26.210938 94.914063 0 26.210937-26.210937 26.210937-68.707031 0-94.917968zm0 0" fill="#ff7956"/><path d="m181.007812 120.554688c-14.667968-7.105469-31.378906-8.558594-46.882812-4.351563l-36.007812 105.09375c1.867187 2.476563 3.914062 4.863281 6.171874 7.117187 9.542969 9.542969 21.246094 15.59375 33.53125 18.1875zm0 0" fill="#ff6243"/><path d="m356.84375 261.285156c-1.917969 0-3.835938-.730468-5.300781-2.195312l-8.183594-8.183594c-2.929687-2.929688-2.929687-7.675781 0-10.605469 2.929687-2.925781 7.679687-2.925781 10.605469 0l8.183594 8.183594c2.929687 2.929687 2.929687 7.675781 0 10.605469-1.464844 1.464844-3.382813 2.195312-5.304688 2.195312zm0 0" fill="#f46262"/><path d="m265.054688 169.496094c-1.917969 0-3.839844-.730469-5.300782-2.195313l-8.183594-8.183593c-2.929687-2.929688-2.929687-7.675782 0-10.605469 2.929688-2.929688 7.675782-2.929688 10.605469 0l8.179688 8.183593c2.929687 2.925782 2.929687 7.675782 0 10.605469-1.460938 1.464844-3.382813 2.195313-5.300781 2.195313zm0 0" fill="#f46262"/><path d="m317.96875 172.1875c-1.988281-1.988281-4.632812-3.082031-7.445312-3.082031s-5.457032 1.09375-7.445313 3.082031l-7.152344 7.152344c-4.726562 4.726562-7.328125 11.011718-7.328125 17.695312s2.601563 12.96875 7.328125 17.695313c4.726563 4.726562 11.011719 7.332031 17.695313 7.332031s12.96875-2.605469 17.695312-7.332031l7.15625-7.152344c4.101563-4.105469 4.101563-10.78125 0-14.890625zm2.746094 31.9375c-1.894532 1.894531-4.414063 2.9375-7.09375 2.9375-2.675782 0-5.195313-1.042969-7.089844-2.9375-1.894531-1.890625-2.9375-4.410156-2.9375-7.089844 0-2.679687 1.042969-5.195312 2.9375-7.089844l3.992188-3.992187 14.183593 14.183594zm0 0"/><path d="m373.523438 239.53125 8.183593-8.183594c2.929688-2.929687 2.929688-7.675781 0-10.605468-2.929687-2.929688-7.675781-2.929688-10.605469 0l-8.183593 8.183593c-2.925781 2.925781-2.925781 7.675781 0 10.601563 1.464843 1.464844 3.386719 2.199218 5.304687 2.199218 1.917969 0 3.839844-.734374 5.300782-2.195312zm0 0"/><path d="m289.917969 128.953125c-2.929688-2.929687-7.675781-2.929687-10.605469-.003906l-8.183594 8.183593c-2.925781 2.929688-2.925781 7.679688 0 10.605469 1.464844 1.464844 3.382813 2.195313 5.304688 2.195313 1.917968 0 3.835937-.730469 5.300781-2.195313l8.183594-8.183593c2.925781-2.925782 2.929687-7.675782 0-10.601563zm0 0"/><path d="m422.820312 89.109375c-57.460937-57.460937-133.871093-89.109375-215.144531-89.109375-21.601562 0-43.246093 2.300781-64.328125 6.839844-13.796875 2.96875-24.589844 13.355468-28.175781 27.109375-2.941406 11.289062-.550781 23.042969 6.554687 32.242187 4.554688 5.894532 10.5625 10.183594 17.308594 12.535156l-12.007812 35.046876c0 .007812-.003906.015624-.007813.023437l-11.964843 34.921875c-1.339844 3.917969.746093 8.183594 4.664062 9.523438.804688.277343 1.625.40625 2.433594.40625 3.113281 0 6.023437-1.957032 7.09375-5.070313l10.632812-31.03125c19.492188-3.933594 39.882813 2.113281 54.023438 16.253906 11.261718 11.261719 17.460937 26.230469 17.460937 42.15625s-6.199219 30.894531-17.460937 42.15625c-11.261719 11.257813-26.230469 17.460938-42.15625 17.460938-15.925782 0-30.894532-6.203125-42.15625-17.460938-1.039063-1.042969-2.054688-2.144531-3.039063-3.292969l13.972657-40.785156c1.34375-3.917968-.746094-8.183594-4.664063-9.527344s-8.183594.746094-9.523437 4.664063l-15.308594 44.671875c0 .007812-.003906.015625-.007813.023438l-41.964843 122.496093s0 0-.003907 0l-34.800781 101.582031c-.007812.019532-.011719.035157-.019531.050782l-12.941407 37.773437c-2.933593 8.5625-.78125 17.851563 5.621094 24.25 4.507813 4.507813 10.449219 6.90625 16.5625 6.90625 2.5625 0 5.160156-.421875 7.6875-1.289062l299.832032-102.753907c3.917968-1.34375 6.007812-5.605468 4.664062-9.523437s-5.609375-6.007813-9.523438-4.664063l-19.175781 6.570313c2.222657-19.046875-4.261719-38.53125-18.121093-52.390625-24.75-24.75-65.027344-24.75-89.777344 0-11.992188 11.988281-18.597656 27.933594-18.597656 44.890625 0 16.8125 6.5 32.625 18.300781 44.578125l-172.460938 59.105469c-3.152343 1.074219-6.433593.316406-8.789062-2.035157-2.351563-2.351562-3.113281-5.636718-2.035157-8.785156l9.960938-29.074218c9.015625 4.5625 18.777344 6.8125 28.503906 6.8125 16.320313 0 32.527344-6.328126 44.871094-18.671876 24.753906-24.753906 24.753906-65.03125 0-89.785156-8.980469-8.976562-20.308594-14.960937-32.597656-17.375l34.882812-101.808594c14.257813 13.195313 32.449219 19.808594 50.648438 19.808594 19.105468 0 38.214844-7.269531 52.761718-21.816406 14.09375-14.09375 21.855469-32.832031 21.855469-52.761719 0-19.933593-7.765625-38.671875-21.855469-52.761719-15.667968-15.667968-37.46875-23.398437-59.183593-21.546874l8.902343-25.992188c1.675782-.132812 3.351563-.363281 5.007813-.71875 15.871094-3.398438 32.164063-5.121094 48.425781-5.121094 61.390625 0 119.042969 23.839844 162.328125 67.125 55.25 55.253906 78.429688 134.039063 62.003907 210.753906-.355469 1.652344-.582032 3.308594-.710938 4.964844l-76.613281 26.253906c-3.917969 1.34375-6.007813 5.609376-4.664063 9.527344 1.066406 3.109375 3.976563 5.066406 7.09375 5.066406.804688 0 1.625-.128906 2.429688-.40625l73.691406-25.253906c1.394531 4.007813 3.476562 7.796875 6.222656 11.191406 7.171875 8.867188 17.734375 13.953126 28.988282 13.953126 3.191406 0 6.40625-.414063 9.554687-1.234376 13.75-3.585937 24.136719-14.378906 27.105469-28.171874 21.871094-101.613282-8.882813-206.089844-82.269532-279.476563zm-213.160156 337.941406c-9.15625-9.15625-14.199218-21.335937-14.199218-34.285156 0-12.953125 5.042968-25.128906 14.199218-34.285156 18.90625-18.90625 49.664063-18.90625 68.570313 0 12.382812 12.382812 17.066406 30.648437 12.398437 47.378906l-75.5 25.875c-1.941406-1.433594-3.78125-2.996094-5.46875-4.683594zm-121.449218-61.53125c18.90625 18.902344 18.90625 49.664063 0 68.570313-15.546876 15.546875-39.101563 18.585937-57.84375 8.089844l30.929687-90.28125c10.160156 1.550781 19.566406 6.273437 26.914063 13.621093zm402.21875-.089843c-1.773438 8.222656-7.988282 14.664062-16.230469 16.8125-1.914063.5-3.855469.753906-5.769531.753906-6.703126 0-13.015626-3.058594-17.324219-8.386719-2.964844-3.664063-4.636719-7.957031-4.925781-12.480469 0-.007812 0-.011718-.003907-.019531-.128906-2.058594.03125-4.160156.484375-6.273437 17.496094-81.710938-7.203125-165.636719-66.066406-224.5-46.121094-46.117188-107.535156-71.519532-172.929688-71.519532-17.316406 0-34.667968 1.835938-51.570312 5.457032-1.609375.34375-3.238281.519531-4.839844.519531-.144531 0-.289062-.007813-.4375-.011719-.882812-.234375-1.777344-.300781-2.644531-.210938-5.71875-.804687-10.917969-3.8125-14.578125-8.550781-4.246094-5.496093-5.667969-12.527343-3.90625-19.289062 2.148438-8.238281 8.589844-14.457031 16.8125-16.230469 20.050781-4.3125 40.632812-6.503906 61.175781-6.503906 77.269531 0 149.910157 30.085937 204.539063 84.71875 69.769531 69.769531 99.007812 169.101562 78.214844 265.714844zm0 0"/><g fill="#7ec66a"><path d="m130.851562 356.476562c-3.480468 0-6.601562-2.4375-7.332031-5.980468l-8.953125-43.265625c-.839844-4.054688 1.769532-8.023438 5.824219-8.863281 4.058594-.835938 8.023437 1.769531 8.863281 5.824218l8.953125 43.265625c.835938 4.058594-1.769531 8.023438-5.824219 8.863281-.515624.105469-1.027343.15625-1.53125.15625zm0 0"/><path d="m367.339844 340.648438c-.484375 0-.972656-.050782-1.464844-.148438l-49.003906-9.714844c-4.0625-.804687-6.703125-4.75-5.898438-8.8125.804688-4.0625 4.75-6.703125 8.8125-5.894531l49.003906 9.714844c4.0625.804687 6.703126 4.75 5.898438 8.8125-.707031 3.570312-3.839844 6.042969-7.347656 6.042969zm0 0"/><path d="m231.496094 276.859375c-1.167969 0-2.355469-.273437-3.464844-.855469-3.671875-1.917968-5.09375-6.445312-3.175781-10.117187l18.34375-35.132813c1.917969-3.667968 6.445312-5.09375 10.117187-3.175781s5.09375 6.449219 3.175782 10.117187l-18.34375 35.132813c-1.335938 2.5625-3.949219 4.03125-6.652344 4.03125zm0 0"/></g></svg>