<?xml version="1.0" standalone="no"?>
<!DOCTYPE svg PUBLIC "-//W3C//DTD SVG 20010904//EN"
 "http://www.w3.org/TR/2001/REC-SVG-20010904/DTD/svg10.dtd">
<svg version="1.0" xmlns="http://www.w3.org/2000/svg"
 width="60.000000pt" height="60.000000pt" viewBox="0 0 60.000000 60.000000"
 preserveAspectRatio="xMidYMid meet">

<g transform="translate(0.000000,60.000000) scale(0.100000,-0.100000)"
fill="#000000" stroke="none">
<path d="M213 328 c-84 -84 -153 -156 -153 -160 0 -4 7 -14 16 -22 13 -14 47
-16 219 -16 235 0 241 2 230 74 -16 109 -98 268 -140 274 -14 2 -63 -41 -172
-150z m208 75 c40 -57 66 -125 75 -192 6 -50 6 -51 -19 -51 -22 0 -25 5 -32
48 -7 54 -45 142 -80 188 -18 23 -21 34 -12 43 20 20 35 12 68 -36z m-78 -20
c30 -34 68 -123 74 -173 l6 -50 -167 0 c-91 0 -166 3 -166 8 0 8 222 231 231
232 3 0 13 -8 22 -17z"/>
</g>
</svg>
